<mxfile host="app.diagrams.net" modified="2022-12-13T16:10:11.236Z" agent="5.0 (Macintosh; Intel Mac OS X 10_15_7) AppleWebKit/537.36 (KHTML, like Gecko) Chrome/108.0.0.0 Safari/537.36" version="20.6.2" etag="PIVb5kwq7zlbqypLzzDs" type="github">
  <diagram id="ym15Vo2EnY7Uo_3sbrPt" name="第 1 页">
    <mxGraphModel dx="8427" dy="2420" grid="1" gridSize="10" guides="1" tooltips="1" connect="1" arrows="1" fold="1" page="1" pageScale="1" pageWidth="3300" pageHeight="4681" math="0" shadow="0">
      <root>
        <mxCell id="0" />
        <mxCell id="1" parent="0" />
        <mxCell id="6RIGfOtSF4UjeA8R_roA-1" value="&lt;font style=&quot;&quot; face=&quot;Verdana&quot;&gt;&lt;font style=&quot;font-size: 30px;&quot;&gt;user_id&lt;br&gt;123&lt;br&gt;456&lt;br&gt;789&lt;br&gt;...&lt;/font&gt;&lt;br&gt;&lt;/font&gt;" style="shape=note;whiteSpace=wrap;html=1;backgroundOutline=1;darkOpacity=0.05;" vertex="1" parent="1">
          <mxGeometry x="-2077.5" y="140" width="205" height="190" as="geometry" />
        </mxCell>
        <mxCell id="6RIGfOtSF4UjeA8R_roA-2" value="&lt;font style=&quot;font-size: 30px;&quot;&gt;original_user_file from task: task_id is 5379&lt;/font&gt;" style="text;html=1;strokeColor=none;fillColor=none;align=center;verticalAlign=middle;whiteSpace=wrap;rounded=0;fontFamily=Verdana;fontSize=36;" vertex="1" parent="1">
          <mxGeometry x="-2200" y="80" width="450" height="30" as="geometry" />
        </mxCell>
        <mxCell id="6RIGfOtSF4UjeA8R_roA-8" value="&lt;font style=&quot;font-size: 30px;&quot;&gt;filter&lt;/font&gt;" style="ellipse;whiteSpace=wrap;html=1;aspect=fixed;fontFamily=Verdana;fontSize=36;" vertex="1" parent="1">
          <mxGeometry x="-2045" y="420" width="140" height="140" as="geometry" />
        </mxCell>
        <mxCell id="6RIGfOtSF4UjeA8R_roA-9" value="" style="endArrow=classic;html=1;rounded=0;fontFamily=Verdana;fontSize=36;exitX=0.5;exitY=1;exitDx=0;exitDy=0;exitPerimeter=0;entryX=0.5;entryY=0;entryDx=0;entryDy=0;" edge="1" parent="1" source="6RIGfOtSF4UjeA8R_roA-1" target="6RIGfOtSF4UjeA8R_roA-8">
          <mxGeometry width="50" height="50" relative="1" as="geometry">
            <mxPoint x="-1375" y="450" as="sourcePoint" />
            <mxPoint x="-1325" y="400" as="targetPoint" />
          </mxGeometry>
        </mxCell>
        <mxCell id="6RIGfOtSF4UjeA8R_roA-10" value="&lt;font style=&quot;font-size: 30px;&quot;&gt;check filter_type&lt;/font&gt;" style="rhombus;whiteSpace=wrap;html=1;fontFamily=Verdana;fontSize=36;" vertex="1" parent="1">
          <mxGeometry x="-2165" y="660" width="380" height="190" as="geometry" />
        </mxCell>
        <mxCell id="6RIGfOtSF4UjeA8R_roA-11" value="" style="endArrow=classic;html=1;rounded=0;fontFamily=Verdana;fontSize=36;exitX=0.5;exitY=1;exitDx=0;exitDy=0;" edge="1" parent="1" source="6RIGfOtSF4UjeA8R_roA-8" target="6RIGfOtSF4UjeA8R_roA-10">
          <mxGeometry width="50" height="50" relative="1" as="geometry">
            <mxPoint x="-2120" y="900" as="sourcePoint" />
            <mxPoint x="-2070" y="850" as="targetPoint" />
          </mxGeometry>
        </mxCell>
        <mxCell id="6RIGfOtSF4UjeA8R_roA-12" value="&lt;font style=&quot;font-size: 30px;&quot;&gt;Get score from DS model&amp;nbsp;&lt;/font&gt;" style="rounded=1;whiteSpace=wrap;html=1;fontFamily=Verdana;fontSize=36;" vertex="1" parent="1">
          <mxGeometry x="-2550" y="970" width="290" height="150" as="geometry" />
        </mxCell>
        <mxCell id="6RIGfOtSF4UjeA8R_roA-13" value="&lt;font style=&quot;font-size: 30px;&quot;&gt;Use DS model to filter user, filter user at DS side&lt;/font&gt;" style="rounded=1;whiteSpace=wrap;html=1;fontFamily=Verdana;fontSize=36;" vertex="1" parent="1">
          <mxGeometry x="-1700" y="970" width="290" height="150" as="geometry" />
        </mxCell>
        <mxCell id="6RIGfOtSF4UjeA8R_roA-14" value="" style="endArrow=classic;html=1;rounded=0;fontFamily=Verdana;fontSize=36;edgeStyle=orthogonalEdgeStyle;entryX=0.5;entryY=0;entryDx=0;entryDy=0;exitX=0;exitY=0.5;exitDx=0;exitDy=0;" edge="1" parent="1" source="6RIGfOtSF4UjeA8R_roA-10" target="6RIGfOtSF4UjeA8R_roA-12">
          <mxGeometry width="50" height="50" relative="1" as="geometry">
            <mxPoint x="-2120" y="880" as="sourcePoint" />
            <mxPoint x="-2070" y="830" as="targetPoint" />
          </mxGeometry>
        </mxCell>
        <mxCell id="6RIGfOtSF4UjeA8R_roA-15" value="" style="endArrow=classic;html=1;rounded=0;fontFamily=Verdana;fontSize=36;edgeStyle=orthogonalEdgeStyle;entryX=0.5;entryY=0;entryDx=0;entryDy=0;exitX=1;exitY=0.5;exitDx=0;exitDy=0;" edge="1" parent="1" source="6RIGfOtSF4UjeA8R_roA-10" target="6RIGfOtSF4UjeA8R_roA-13">
          <mxGeometry width="50" height="50" relative="1" as="geometry">
            <mxPoint x="-2155" y="765" as="sourcePoint" />
            <mxPoint x="-2310" y="980" as="targetPoint" />
          </mxGeometry>
        </mxCell>
        <mxCell id="6RIGfOtSF4UjeA8R_roA-16" value="&lt;font style=&quot;font-size: 30px;&quot;&gt;targe_reach&lt;/font&gt;" style="text;html=1;strokeColor=none;fillColor=none;align=center;verticalAlign=middle;whiteSpace=wrap;rounded=0;fontFamily=Verdana;fontSize=36;" vertex="1" parent="1">
          <mxGeometry x="-2290" y="710" width="60" height="30" as="geometry" />
        </mxCell>
        <mxCell id="6RIGfOtSF4UjeA8R_roA-17" value="&lt;font style=&quot;font-size: 30px;&quot;&gt;auto_optimise&lt;/font&gt;" style="text;html=1;strokeColor=none;fillColor=none;align=center;verticalAlign=middle;whiteSpace=wrap;rounded=0;fontFamily=Verdana;fontSize=36;" vertex="1" parent="1">
          <mxGeometry x="-1700" y="700" width="60" height="30" as="geometry" />
        </mxCell>
        <mxCell id="6RIGfOtSF4UjeA8R_roA-18" value="s3" style="ellipse;shape=cloud;whiteSpace=wrap;html=1;fontFamily=Verdana;fontSize=30;" vertex="1" parent="1">
          <mxGeometry x="-2140" y="1270" width="300" height="200" as="geometry" />
        </mxCell>
        <mxCell id="6RIGfOtSF4UjeA8R_roA-20" value="&lt;span style=&quot;font-size: 30px;&quot;&gt;Calculate thresh_hold and filter user at noti side&lt;/span&gt;" style="rounded=1;whiteSpace=wrap;html=1;fontFamily=Verdana;fontSize=36;" vertex="1" parent="1">
          <mxGeometry x="-2550" y="1290" width="290" height="160" as="geometry" />
        </mxCell>
        <mxCell id="6RIGfOtSF4UjeA8R_roA-21" value="&lt;span style=&quot;font-size: 30px;&quot;&gt;Write user to local file and upload to s3 and update db&lt;/span&gt;" style="rounded=1;whiteSpace=wrap;html=1;fontFamily=Verdana;fontSize=36;" vertex="1" parent="1">
          <mxGeometry x="-1700" y="1290" width="290" height="160" as="geometry" />
        </mxCell>
        <mxCell id="6RIGfOtSF4UjeA8R_roA-23" value="&lt;span style=&quot;font-size: 30px;&quot;&gt;Write user to local file and upload to s3 and update db&lt;/span&gt;" style="rounded=1;whiteSpace=wrap;html=1;fontFamily=Verdana;fontSize=36;" vertex="1" parent="1">
          <mxGeometry x="-2550" y="1620" width="290" height="160" as="geometry" />
        </mxCell>
        <mxCell id="6RIGfOtSF4UjeA8R_roA-24" value="" style="endArrow=classic;html=1;rounded=0;fontFamily=Verdana;fontSize=30;exitX=0.5;exitY=1;exitDx=0;exitDy=0;" edge="1" parent="1" source="6RIGfOtSF4UjeA8R_roA-12" target="6RIGfOtSF4UjeA8R_roA-20">
          <mxGeometry width="50" height="50" relative="1" as="geometry">
            <mxPoint x="-2120" y="1680" as="sourcePoint" />
            <mxPoint x="-2070" y="1630" as="targetPoint" />
          </mxGeometry>
        </mxCell>
        <mxCell id="6RIGfOtSF4UjeA8R_roA-25" value="" style="endArrow=classic;html=1;rounded=0;fontFamily=Verdana;fontSize=30;exitX=0.5;exitY=1;exitDx=0;exitDy=0;entryX=0.5;entryY=0;entryDx=0;entryDy=0;" edge="1" parent="1" source="6RIGfOtSF4UjeA8R_roA-20" target="6RIGfOtSF4UjeA8R_roA-23">
          <mxGeometry width="50" height="50" relative="1" as="geometry">
            <mxPoint x="-2395" y="1130" as="sourcePoint" />
            <mxPoint x="-2395" y="1300" as="targetPoint" />
          </mxGeometry>
        </mxCell>
        <mxCell id="6RIGfOtSF4UjeA8R_roA-26" value="" style="endArrow=classic;html=1;rounded=0;fontFamily=Verdana;fontSize=30;exitX=0.5;exitY=1;exitDx=0;exitDy=0;entryX=0.5;entryY=0;entryDx=0;entryDy=0;" edge="1" parent="1" source="6RIGfOtSF4UjeA8R_roA-13" target="6RIGfOtSF4UjeA8R_roA-21">
          <mxGeometry width="50" height="50" relative="1" as="geometry">
            <mxPoint x="-2385" y="1140" as="sourcePoint" />
            <mxPoint x="-2385" y="1310" as="targetPoint" />
          </mxGeometry>
        </mxCell>
        <mxCell id="6RIGfOtSF4UjeA8R_roA-27" value="" style="endArrow=classic;html=1;rounded=0;fontFamily=Verdana;fontSize=30;edgeStyle=orthogonalEdgeStyle;entryX=0.55;entryY=0.95;entryDx=0;entryDy=0;entryPerimeter=0;" edge="1" parent="1" source="6RIGfOtSF4UjeA8R_roA-23" target="6RIGfOtSF4UjeA8R_roA-18">
          <mxGeometry width="50" height="50" relative="1" as="geometry">
            <mxPoint x="-2375" y="1150" as="sourcePoint" />
            <mxPoint x="-2375" y="1320" as="targetPoint" />
          </mxGeometry>
        </mxCell>
        <mxCell id="6RIGfOtSF4UjeA8R_roA-28" value="" style="endArrow=classic;html=1;rounded=0;fontFamily=Verdana;fontSize=30;exitX=0;exitY=0.5;exitDx=0;exitDy=0;entryX=0.875;entryY=0.5;entryDx=0;entryDy=0;entryPerimeter=0;" edge="1" parent="1" source="6RIGfOtSF4UjeA8R_roA-21" target="6RIGfOtSF4UjeA8R_roA-18">
          <mxGeometry width="50" height="50" relative="1" as="geometry">
            <mxPoint x="-2365" y="1160" as="sourcePoint" />
            <mxPoint x="-2365" y="1330" as="targetPoint" />
          </mxGeometry>
        </mxCell>
        <mxCell id="6RIGfOtSF4UjeA8R_roA-29" value="db" style="shape=cylinder3;whiteSpace=wrap;html=1;boundedLbl=1;backgroundOutline=1;size=15;fontFamily=Verdana;fontSize=30;" vertex="1" parent="1">
          <mxGeometry x="-2027.5" y="1920" width="105" height="130" as="geometry" />
        </mxCell>
        <mxCell id="6RIGfOtSF4UjeA8R_roA-30" value="" style="endArrow=classic;html=1;rounded=0;fontFamily=Verdana;fontSize=30;exitX=0.5;exitY=1;exitDx=0;exitDy=0;edgeStyle=orthogonalEdgeStyle;entryX=0;entryY=0.5;entryDx=0;entryDy=0;entryPerimeter=0;" edge="1" parent="1" source="6RIGfOtSF4UjeA8R_roA-23" target="6RIGfOtSF4UjeA8R_roA-29">
          <mxGeometry width="50" height="50" relative="1" as="geometry">
            <mxPoint x="-2120" y="1680" as="sourcePoint" />
            <mxPoint x="-2070" y="1630" as="targetPoint" />
          </mxGeometry>
        </mxCell>
        <mxCell id="6RIGfOtSF4UjeA8R_roA-31" value="" style="endArrow=classic;html=1;rounded=0;fontFamily=Verdana;fontSize=30;exitX=0.5;exitY=1;exitDx=0;exitDy=0;edgeStyle=orthogonalEdgeStyle;entryX=1;entryY=0.5;entryDx=0;entryDy=0;entryPerimeter=0;" edge="1" parent="1" source="6RIGfOtSF4UjeA8R_roA-21" target="6RIGfOtSF4UjeA8R_roA-29">
          <mxGeometry width="50" height="50" relative="1" as="geometry">
            <mxPoint x="-2395" y="1790" as="sourcePoint" />
            <mxPoint x="-2017.5" y="1975" as="targetPoint" />
          </mxGeometry>
        </mxCell>
        <mxCell id="6RIGfOtSF4UjeA8R_roA-33" value="" style="shape=flexArrow;endArrow=classic;html=1;rounded=0;fontFamily=Verdana;fontSize=30;" edge="1" parent="1">
          <mxGeometry width="50" height="50" relative="1" as="geometry">
            <mxPoint x="-1330" y="1380" as="sourcePoint" />
            <mxPoint x="-1180" y="1380" as="targetPoint" />
          </mxGeometry>
        </mxCell>
        <mxCell id="6RIGfOtSF4UjeA8R_roA-34" value="&lt;font style=&quot;&quot; face=&quot;Verdana&quot;&gt;&lt;font style=&quot;font-size: 30px;&quot;&gt;user_id&lt;br&gt;123&lt;br&gt;789&lt;br&gt;...&lt;/font&gt;&lt;br&gt;&lt;/font&gt;" style="shape=note;whiteSpace=wrap;html=1;backgroundOutline=1;darkOpacity=0.05;" vertex="1" parent="1">
          <mxGeometry x="-1130" y="1280" width="205" height="190" as="geometry" />
        </mxCell>
        <mxCell id="6RIGfOtSF4UjeA8R_roA-35" value="&lt;span style=&quot;color: rgb(0, 0, 0); font-family: Verdana; font-size: 30px; font-style: normal; font-variant-ligatures: normal; font-variant-caps: normal; font-weight: 400; letter-spacing: normal; orphans: 2; text-indent: 0px; text-transform: none; widows: 2; word-spacing: 0px; -webkit-text-stroke-width: 0px; background-color: rgb(248, 249, 250); text-decoration-thickness: initial; text-decoration-style: initial; text-decoration-color: initial; float: none; display: inline !important;&quot;&gt;get filtered_user_file after filter: task_id is 5379&lt;/span&gt;" style="text;whiteSpace=wrap;html=1;fontSize=30;fontFamily=Verdana;align=center;" vertex="1" parent="1">
          <mxGeometry x="-1250" y="1200" width="490" height="60" as="geometry" />
        </mxCell>
        <mxCell id="6RIGfOtSF4UjeA8R_roA-38" value="&lt;font style=&quot;font-size: 30px;&quot;&gt;prioritisation&lt;/font&gt;" style="ellipse;whiteSpace=wrap;html=1;aspect=fixed;fontFamily=Verdana;fontSize=36;" vertex="1" parent="1">
          <mxGeometry x="-530" y="80" width="140" height="140" as="geometry" />
        </mxCell>
        <mxCell id="6RIGfOtSF4UjeA8R_roA-40" value="&lt;span style=&quot;font-size: 30px;&quot;&gt;Get the score of each user in each task from the DS model&lt;/span&gt;" style="rounded=1;whiteSpace=wrap;html=1;fontFamily=Verdana;fontSize=36;" vertex="1" parent="1">
          <mxGeometry x="-605" y="660" width="292.5" height="190" as="geometry" />
        </mxCell>
        <mxCell id="6RIGfOtSF4UjeA8R_roA-41" value="" style="endArrow=classic;html=1;rounded=0;fontFamily=Verdana;fontSize=36;exitX=0.5;exitY=1;exitDx=0;exitDy=0;entryX=0.5;entryY=0;entryDx=0;entryDy=0;" edge="1" parent="1" source="6RIGfOtSF4UjeA8R_roA-38" target="6RIGfOtSF4UjeA8R_roA-42">
          <mxGeometry width="50" height="50" relative="1" as="geometry">
            <mxPoint x="-450" as="sourcePoint" />
            <mxPoint x="-450" y="90" as="targetPoint" />
          </mxGeometry>
        </mxCell>
        <mxCell id="6RIGfOtSF4UjeA8R_roA-42" value="&lt;span style=&quot;font-size: 30px;&quot;&gt;Get tasks depend on region and schedule time&lt;/span&gt;" style="rounded=1;whiteSpace=wrap;html=1;fontFamily=Verdana;fontSize=36;" vertex="1" parent="1">
          <mxGeometry x="-605" y="370" width="290" height="150" as="geometry" />
        </mxCell>
        <mxCell id="6RIGfOtSF4UjeA8R_roA-43" value="" style="endArrow=classic;html=1;rounded=0;fontFamily=Verdana;fontSize=36;exitX=0.5;exitY=1;exitDx=0;exitDy=0;" edge="1" parent="1" source="6RIGfOtSF4UjeA8R_roA-42" target="6RIGfOtSF4UjeA8R_roA-40">
          <mxGeometry width="50" height="50" relative="1" as="geometry">
            <mxPoint x="-450" y="230" as="sourcePoint" />
            <mxPoint x="-450" y="380" as="targetPoint" />
          </mxGeometry>
        </mxCell>
        <mxCell id="6RIGfOtSF4UjeA8R_roA-45" value="redis" style="shape=cylinder3;whiteSpace=wrap;html=1;boundedLbl=1;backgroundOutline=1;size=15;fontFamily=Verdana;fontSize=30;" vertex="1" parent="1">
          <mxGeometry x="-162.5" y="1030" width="105" height="130" as="geometry" />
        </mxCell>
        <mxCell id="6RIGfOtSF4UjeA8R_roA-46" value="&lt;span style=&quot;font-size: 30px;&quot;&gt;Save every user&#39;s task_id and score to redis&lt;/span&gt;" style="rounded=1;whiteSpace=wrap;html=1;fontFamily=Verdana;fontSize=36;" vertex="1" parent="1">
          <mxGeometry x="-605" y="1000" width="292.5" height="190" as="geometry" />
        </mxCell>
        <mxCell id="6RIGfOtSF4UjeA8R_roA-47" value="" style="endArrow=classic;html=1;rounded=0;fontFamily=Verdana;fontSize=36;exitX=0.5;exitY=1;exitDx=0;exitDy=0;entryX=0.5;entryY=0;entryDx=0;entryDy=0;" edge="1" parent="1" source="6RIGfOtSF4UjeA8R_roA-40" target="6RIGfOtSF4UjeA8R_roA-46">
          <mxGeometry width="50" height="50" relative="1" as="geometry">
            <mxPoint x="-450" y="530" as="sourcePoint" />
            <mxPoint x="-449.2553191489369" y="670" as="targetPoint" />
          </mxGeometry>
        </mxCell>
        <mxCell id="6RIGfOtSF4UjeA8R_roA-48" value="" style="endArrow=classic;html=1;rounded=0;fontFamily=Verdana;fontSize=36;exitX=1;exitY=0.5;exitDx=0;exitDy=0;entryX=0;entryY=0.5;entryDx=0;entryDy=0;entryPerimeter=0;" edge="1" parent="1" source="6RIGfOtSF4UjeA8R_roA-46" target="6RIGfOtSF4UjeA8R_roA-45">
          <mxGeometry width="50" height="50" relative="1" as="geometry">
            <mxPoint x="-448.75" y="860" as="sourcePoint" />
            <mxPoint x="-448.75" y="1010" as="targetPoint" />
          </mxGeometry>
        </mxCell>
        <mxCell id="6RIGfOtSF4UjeA8R_roA-50" value="&lt;font style=&quot;font-size: 29px;&quot;&gt;Get user&#39;s every task rank from redis and compare with user daily limit&amp;nbsp;&lt;/font&gt;" style="rounded=1;whiteSpace=wrap;html=1;fontFamily=Verdana;fontSize=36;" vertex="1" parent="1">
          <mxGeometry x="-610" y="1300" width="302.5" height="200" as="geometry" />
        </mxCell>
        <mxCell id="6RIGfOtSF4UjeA8R_roA-51" value="" style="endArrow=classic;html=1;rounded=0;fontFamily=Verdana;fontSize=36;exitX=0.5;exitY=1;exitDx=0;exitDy=0;entryX=0.5;entryY=0;entryDx=0;entryDy=0;" edge="1" parent="1" source="6RIGfOtSF4UjeA8R_roA-46" target="6RIGfOtSF4UjeA8R_roA-50">
          <mxGeometry width="50" height="50" relative="1" as="geometry">
            <mxPoint x="-448.75" y="860" as="sourcePoint" />
            <mxPoint x="-448.75" y="1010" as="targetPoint" />
          </mxGeometry>
        </mxCell>
        <mxCell id="6RIGfOtSF4UjeA8R_roA-52" value="" style="endArrow=classic;html=1;rounded=0;fontFamily=Verdana;fontSize=36;exitX=1;exitY=0.5;exitDx=0;exitDy=0;entryX=0.5;entryY=1;entryDx=0;entryDy=0;edgeStyle=orthogonalEdgeStyle;entryPerimeter=0;" edge="1" parent="1" source="6RIGfOtSF4UjeA8R_roA-50" target="6RIGfOtSF4UjeA8R_roA-45">
          <mxGeometry width="50" height="50" relative="1" as="geometry">
            <mxPoint x="-448.75" y="1200" as="sourcePoint" />
            <mxPoint x="-448.75" y="1310" as="targetPoint" />
          </mxGeometry>
        </mxCell>
        <mxCell id="6RIGfOtSF4UjeA8R_roA-53" value="&lt;span style=&quot;font-size: 30px;&quot;&gt;Write user to local file and upload to s3 and update db&lt;/span&gt;" style="rounded=1;whiteSpace=wrap;html=1;fontFamily=Verdana;fontSize=36;" vertex="1" parent="1">
          <mxGeometry x="-605" y="1630" width="290" height="160" as="geometry" />
        </mxCell>
        <mxCell id="6RIGfOtSF4UjeA8R_roA-54" value="" style="endArrow=classic;html=1;rounded=0;fontFamily=Verdana;fontSize=36;exitX=0.5;exitY=1;exitDx=0;exitDy=0;entryX=0.5;entryY=0;entryDx=0;entryDy=0;" edge="1" parent="1" source="6RIGfOtSF4UjeA8R_roA-50" target="6RIGfOtSF4UjeA8R_roA-53">
          <mxGeometry width="50" height="50" relative="1" as="geometry">
            <mxPoint x="-448.75" y="1200" as="sourcePoint" />
            <mxPoint x="-448.75" y="1310" as="targetPoint" />
          </mxGeometry>
        </mxCell>
        <mxCell id="6RIGfOtSF4UjeA8R_roA-55" value="s3" style="ellipse;shape=cloud;whiteSpace=wrap;html=1;fontFamily=Verdana;fontSize=30;" vertex="1" parent="1">
          <mxGeometry x="-260" y="1600" width="300" height="200" as="geometry" />
        </mxCell>
        <mxCell id="6RIGfOtSF4UjeA8R_roA-56" value="" style="endArrow=classic;html=1;rounded=0;fontFamily=Verdana;fontSize=36;exitX=1;exitY=0.5;exitDx=0;exitDy=0;entryX=0.16;entryY=0.55;entryDx=0;entryDy=0;entryPerimeter=0;" edge="1" parent="1" source="6RIGfOtSF4UjeA8R_roA-53" target="6RIGfOtSF4UjeA8R_roA-55">
          <mxGeometry width="50" height="50" relative="1" as="geometry">
            <mxPoint x="-302.5" y="1105" as="sourcePoint" />
            <mxPoint x="-152.5" y="1105" as="targetPoint" />
          </mxGeometry>
        </mxCell>
        <mxCell id="6RIGfOtSF4UjeA8R_roA-57" value="db" style="shape=cylinder3;whiteSpace=wrap;html=1;boundedLbl=1;backgroundOutline=1;size=15;fontFamily=Verdana;fontSize=30;" vertex="1" parent="1">
          <mxGeometry x="-511.25" y="1900" width="105" height="130" as="geometry" />
        </mxCell>
        <mxCell id="6RIGfOtSF4UjeA8R_roA-58" value="" style="endArrow=classic;html=1;rounded=0;fontFamily=Verdana;fontSize=36;exitX=0.5;exitY=1;exitDx=0;exitDy=0;entryX=0.5;entryY=0;entryDx=0;entryDy=0;entryPerimeter=0;" edge="1" parent="1" source="6RIGfOtSF4UjeA8R_roA-53" target="6RIGfOtSF4UjeA8R_roA-57">
          <mxGeometry width="50" height="50" relative="1" as="geometry">
            <mxPoint x="-305" y="1720" as="sourcePoint" />
            <mxPoint x="-202.0000000000009" y="1720" as="targetPoint" />
          </mxGeometry>
        </mxCell>
        <mxCell id="6RIGfOtSF4UjeA8R_roA-59" value="&lt;font style=&quot;&quot; face=&quot;Verdana&quot;&gt;&lt;font style=&quot;font-size: 30px;&quot;&gt;user_id&lt;br&gt;123&lt;br&gt;...&lt;/font&gt;&lt;br&gt;&lt;/font&gt;" style="shape=note;whiteSpace=wrap;html=1;backgroundOutline=1;darkOpacity=0.05;" vertex="1" parent="1">
          <mxGeometry x="245" y="940" width="205" height="190" as="geometry" />
        </mxCell>
        <mxCell id="6RIGfOtSF4UjeA8R_roA-60" value="&lt;span style=&quot;color: rgb(0, 0, 0); font-family: Verdana; font-size: 30px; font-style: normal; font-variant-ligatures: normal; font-variant-caps: normal; font-weight: 400; letter-spacing: normal; orphans: 2; text-indent: 0px; text-transform: none; widows: 2; word-spacing: 0px; -webkit-text-stroke-width: 0px; background-color: rgb(248, 249, 250); text-decoration-thickness: initial; text-decoration-style: initial; text-decoration-color: initial; float: none; display: inline !important;&quot;&gt;get prioritisation_user_file after prioritisation: task_id is 5379&lt;/span&gt;" style="text;whiteSpace=wrap;html=1;fontSize=29;fontFamily=Verdana;align=center;" vertex="1" parent="1">
          <mxGeometry x="67.5" y="850" width="560" height="100" as="geometry" />
        </mxCell>
        <mxCell id="6RIGfOtSF4UjeA8R_roA-61" value="" style="shape=flexArrow;endArrow=classic;html=1;rounded=0;fontFamily=Verdana;fontSize=30;" edge="1" parent="1">
          <mxGeometry width="50" height="50" relative="1" as="geometry">
            <mxPoint x="47.5" y="1033.75" as="sourcePoint" />
            <mxPoint x="197.5" y="1033.75" as="targetPoint" />
          </mxGeometry>
        </mxCell>
      </root>
    </mxGraphModel>
  </diagram>
</mxfile>
